HIERARCHY
ROOT Hips
{
 OFFSET 0.000000 0.000000 0.000000
 CHANNELS 6 Xposition Yposition Zposition Yrotation Xrotation Zrotation
 JOINT Chest
 {
  OFFSET 0.000000 9.585900 0.002600
  CHANNELS 3 Yrotation Xrotation Zrotation
  JOINT Chest2
  {
   OFFSET 0.000000 9.601200 -0.005300
   CHANNELS 3 Yrotation Xrotation Zrotation
   JOINT Chest3
   {
    OFFSET 0.000000 9.561800 0.000000
    CHANNELS 3 Yrotation Xrotation Zrotation
    JOINT Chest4
    {
     OFFSET 0.000000 9.552100 0.000000
     CHANNELS 3 Yrotation Xrotation Zrotation
     JOINT Neck
     {
      OFFSET 0.000000 14.453000 0.000000
      CHANNELS 3 Yrotation Xrotation Zrotation
      JOINT Head
      {
       OFFSET 0.000000 8.936500 -0.011300
       CHANNELS 3 Yrotation Xrotation Zrotation
       End Site
       {
        OFFSET 0.000000 17.073600 -0.006000
       }
      }
     }
     JOINT RightCollar
     {
      OFFSET -2.921100 9.558500 0.000000
      CHANNELS 3 Yrotation Xrotation Zrotation
      JOINT RightShoulder
      {
       OFFSET -13.519700 0.000000 0.000000
       CHANNELS 3 Yrotation Xrotation Zrotation
       JOINT RightElbow
       {
        OFFSET 0.000000 -29.696600 0.000000
        CHANNELS 3 Yrotation Xrotation Zrotation
        JOINT RightWrist
        {
         OFFSET 0.000000 -24.004700 0.000000
         CHANNELS 3 Yrotation Xrotation Zrotation
         End Site
         {
          OFFSET 0.000000 -17.728500 0.000000
         }
        }
       }
      }
     }
     JOINT LeftCollar
     {
      OFFSET 2.921100 9.558500 0.000000
      CHANNELS 3 Yrotation Xrotation Zrotation
      JOINT LeftShoulder
      {
       OFFSET 13.519700 0.000000 0.000000
       CHANNELS 3 Yrotation Xrotation Zrotation
       JOINT LeftElbow
       {
        OFFSET 0.000000 -29.696600 0.000000
        CHANNELS 3 Yrotation Xrotation Zrotation
        JOINT LeftWrist
        {
         OFFSET 0.000000 -24.004700 0.000000
         CHANNELS 3 Yrotation Xrotation Zrotation
         End Site
         {
          OFFSET 0.000000 -17.728500 0.000000
         }
        }
       }
      }
     }
    }
   }
  }
 }
 JOINT RightHip
 {
  OFFSET -7.771700 -0.012900 -0.001300
  CHANNELS 3 Yrotation Xrotation Zrotation
  JOINT RightKnee
  {
   OFFSET 0.000000 -40.869800 0.001200
   CHANNELS 3 Yrotation Xrotation Zrotation
   JOINT RightAnkle
   {
    OFFSET 0.000000 -39.717900 0.002100
    CHANNELS 3 Yrotation Xrotation Zrotation
    JOINT RightToe
    {
     OFFSET 0.000000 -4.965400 11.033500
     CHANNELS 3 Yrotation Xrotation Zrotation
     End Site
     {
      OFFSET 0.000000 -1.423100 5.872300
     }
    }
   }
  }
 }
 JOINT LeftHip
 {
  OFFSET 7.771700 -0.012900 -0.001300
  CHANNELS 3 Yrotation Xrotation Zrotation
  JOINT LeftKnee
  {
   OFFSET 0.000000 -40.869800 0.001200
   CHANNELS 3 Yrotation Xrotation Zrotation
   JOINT LeftAnkle
   {
    OFFSET 0.000000 -39.717900 0.002100
    CHANNELS 3 Yrotation Xrotation Zrotation
    JOINT LeftToe
    {
     OFFSET 0.000000 -4.965400 11.033500
     CHANNELS 3 Yrotation Xrotation Zrotation
     End Site
     {
      OFFSET 0.000000 -1.423100 5.872300
     }
    }
   }
  }
 }
}
MOTION
Frames: 5
Frame Time: 0.008333
0.000000 85.388000 0.000000 0.000000 -5.767877 0.000000 0.000000 11.653817 0.000000 0.000000 -5.885947 0.000000 0.000000 -0.000000 0.000000 0.000000 -0.000000 0.000000 0.000000 12.528835 0.000000 0.000000 0.711642 0.000000 0.000000 -0.000000 0.000000 0.000000 0.000000 -90.000000 0.000000 -2.309062 0.000000 0.000000 2.309062 0.000000 0.000000 -0.000000 0.000000 0.000000 -0.000000 90.000000 0.000000 -2.309062 0.000000 0.000000 2.309062 0.000000 0.000000 8.520406 0.000000 0.000000 1.905762 0.000000 -0.000000 -4.658285 0.000000 0.000000 -0.000000 0.000000 0.000000 8.520406 0.000000 0.000000 1.905762 0.000000 -0.000000 -4.658285 0.000000 0.000000 -0.000000 0.000000
-0.872983 52.196893 35.047194 169.339042 -34.413068 -1.393149 5.111468 25.050020 2.805600 0.673073 3.983642 0.497081 1.094409 6.355040 0.813420 3.989687 20.457239 3.179895 3.437799 16.325039 0.935618 6.044299 -5.540192 0.467989 -4.600689 -0.932375 -2.989405 -2.646269 -8.779575 1.663218 -79.989299 -29.952003 109.565742 -18.805345 -4.653224 18.989182 -6.368309 0.147592 0.169631 7.414448 -12.025708 0.836659 70.234247 -20.196539 -116.337572 22.757500 -12.701126 -7.103399 -2.857365 -47.233247 4.046041 -154.274838 86.390167 -150.364210 -1.134876 -10.258118 -2.035387 0.125246 -0.445090 0.046994 0.101177 -43.045327 5.851627 79.602506 82.268341 69.889583 -5.280162 -13.289512 8.423194 0.274890 1.780976 0.121376
-0.874601 52.199867 35.052344 169.326401 -34.421627 -1.388481 5.116783 25.066883 2.818908 0.674541 3.990026 0.499429 1.096255 6.371825 0.821821 3.986712 20.447579 3.168657 3.434544 16.327513 0.933546 6.039374 -5.502041 0.485106 -4.609944 -0.900171 -2.968798 -2.598978 -8.747018 1.661781 -79.879937 -29.874991 109.456145 -18.851895 -4.754564 18.695416 -6.367328 0.168528 0.177602 7.349174 -12.051896 0.810715 70.289709 -20.216795 -116.251322 22.726929 -12.839165 -6.739899 -2.875549 -47.223199 4.060510 -154.180330 86.402204 -150.277346 -1.129060 -10.241425 -2.036309 0.126373 -0.446930 0.038898 0.087003 -43.031617 5.842642 79.565228 82.242259 69.861417 -5.284286 -13.290166 8.397882 0.282071 1.789419 0.124868
-0.875027 52.202645 35.059507 169.319785 -34.424800 -1.398250 5.125066 25.072137 2.839093 0.671477 3.997323 0.508168 1.098467 6.381154 0.825249 3.996387 20.463449 3.179779 3.418480 16.314514 0.915431 6.023478 -5.470786 0.494657 -4.624210 -0.899276 -2.972326 -2.566191 -8.690466 1.676201 -79.786713 -29.803660 109.392321 -18.887916 -4.854884 18.442835 -6.378876 0.159333 0.169043 7.287829 -12.053177 0.803101 70.353346 -20.223166 -116.234351 22.699831 -12.982093 -6.384692 -2.902405 -47.216902 4.087817 -154.010042 86.417319 -150.108144 -1.121010 -10.220562 -2.046678 0.125632 -0.449222 0.039012 0.057506 -43.023552 5.839658 79.521954 82.201456 69.846977 -5.314184 -13.299201 8.346873 0.316036 1.812110 0.139425
-0.881607 52.205888 35.065376 169.296955 -34.433422 -1.362740 5.128779 25.084889 2.819436 0.666391 4.002087 0.515739 1.100355 6.390270 0.828333 4.005615 20.478195 3.190639 3.402682 16.353149 0.929956 6.006413 -5.484436 0.460954 -4.628590 -0.889712 -2.977416 -2.547618 -8.633661 1.696881 -79.728816 -29.759232 109.370036 -18.905680 -4.931756 18.244307 -6.387486 0.135559 0.149544 7.233521 -12.025506 0.814188 70.391912 -20.204579 -116.190549 22.656797 -13.089521 -6.171204 -2.875740 -47.213827 4.061450 -153.903050 86.423771 -150.009778 -1.115199 -10.203403 -2.050369 0.125640 -0.448322 0.042681 0.063733 -43.009171 5.768537 79.510124 82.135969 69.853196 -5.286245 -13.296522 8.317866 0.292810 1.816287 0.121691
